HIERARCHY
ROOT Hips
{
    OFFSET 0.000000 0.000000 0.000000
    CHANNELS 6 Xposition Yposition Zposition Zrotation Xrotation Yrotation
    JOINT Spine
    {
        OFFSET -0.000000 14.517291 0.000000
        CHANNELS 3 Zrotation Xrotation Yrotation
        JOINT Spine1
        {
            OFFSET -0.000000 37.558300 0.000000
            CHANNELS 3 Zrotation Xrotation Yrotation
            JOINT Neck
            {
                OFFSET -0.000000 37.404057 3.400369
                CHANNELS 3 Zrotation Xrotation Yrotation
                JOINT Head
                {
                    OFFSET -0.000000 24.785618 -3.540803
                    CHANNELS 3 Zrotation Xrotation Yrotation
                    End Site
                    {
                        OFFSET -0.000000 35.408028 0.000000
                    }
                }
            }
            JOINT LeftShoulder
            {
                OFFSET 6.992933 33.973492 -0.192664
                CHANNELS 3 Zrotation Xrotation Yrotation
                JOINT LeftArm
                {
                    OFFSET 21.527611 0.000000 0.000000
                    CHANNELS 3 Zrotation Xrotation Yrotation
                    JOINT LeftForeArm
                    {
                        OFFSET 56.353916 0.000000 0.000000
                        CHANNELS 3 Zrotation Xrotation Yrotation
                        JOINT LeftHand
                        {
                            OFFSET 47.774071 0.000000 0.000000
                            CHANNELS 3 Zrotation Xrotation Yrotation
                            End Site
                            {
                                OFFSET 26.556021 0.000000 0.000000
                            }
                        }
                    }
                }
            }
            JOINT RightShoulder
            {
                OFFSET -7.065357 33.973492 -0.192664
                CHANNELS 3 Zrotation Xrotation Yrotation
                JOINT RightArm
                {
                    OFFSET -21.527611 0.000000 0.000000
                    CHANNELS 3 Zrotation Xrotation Yrotation
                    JOINT RightForeArm
                    {
                        OFFSET -56.353916 0.000000 0.000000
                        CHANNELS 3 Zrotation Xrotation Yrotation
                        JOINT RightHand
                        {
                            OFFSET -47.774071 0.000000 0.000000
                            CHANNELS 3 Zrotation Xrotation Yrotation
                            End Site
                            {
                                OFFSET -26.556021 0.000000 0.000000
                            }
                        }
                    }
                }
            }
        }
    }
    JOINT LeftUpLeg
    {
        OFFSET 17.704014 0.000000 0.000000
        CHANNELS 3 Zrotation Xrotation Yrotation
        JOINT LeftLeg
        {
            OFFSET -0.000000 -81.181816 0.000000
            CHANNELS 3 Zrotation Xrotation Yrotation
            JOINT LeftFoot
            {
                OFFSET -0.000000 -62.821102 0.000000
                CHANNELS 3 Zrotation Xrotation Yrotation
                JOINT LeftToeBase
                {
                    OFFSET -0.000000 -11.507608 26.556021
                    CHANNELS 3 Zrotation Xrotation Yrotation
                    End Site
                    {
                        OFFSET -0.000000 0.000000 7.081605
                    }
                }
            }
        }
    }
    JOINT RightUpLeg
    {
        OFFSET -17.704014 0.000000 0.000000
        CHANNELS 3 Zrotation Xrotation Yrotation
        JOINT RightLeg
        {
            OFFSET -0.000000 -81.181816 0.000000
            CHANNELS 3 Zrotation Xrotation Yrotation
            JOINT RightFoot
            {
                OFFSET -0.000000 -62.821102 0.000000
                CHANNELS 3 Zrotation Xrotation Yrotation
                JOINT RightToeBase
                {
                    OFFSET -0.000000 -11.507608 26.556021
                    CHANNELS 3 Zrotation Xrotation Yrotation
                    End Site
                    {
                        OFFSET -0.000000 0.000000 7.081605
                    }
                }
            }
        }
    }
}
MOTION
Frames:    8
Frame Time:    0.008333
1.040883    151.448074    -12.360758    3.433896    26.381786    4.581401    -3.562845    11.483724    8.669868    -3.667771    -3.831015    2.652440    1.895337    2.415771    -9.279275    8.913960    -19.726429    -7.144792    0.400796    6.232919    -9.912497    -37.940075    17.670725    -47.463802    2.060343    -34.677086    -123.591248    -9.707346    -30.625092    -11.392766    -0.122926    8.829615    2.757585    36.842232    7.039457    58.151295    -32.630283    -33.512920    58.046185    13.313749    -12.571238    34.508900    -10.004331    -55.790016    -30.121763    -18.493338    38.776241    -13.162231    5.532028    -9.684834    41.249340    0.000000    0.000000    0.000000    -8.840880    -1.384384    -24.420601    1.207845    12.495222    -7.659949    14.116550    -17.315073    -4.645469    0.000000    0.000000    0.000000    
1.051223    151.442856    -12.351982    3.431044    26.342281    4.564668    -3.552511    11.495175    8.675693    -3.675922    -3.841467    2.654003    1.876194    2.398503    -9.278258    8.924191    -19.675373    -7.142282    0.400594    6.244366    -9.908041    -37.916901    17.694201    -47.489738    2.074945    -34.704697    -123.577545    -9.680587    -30.635721    -11.365782    -0.128689    8.845271    2.757329    36.849560    7.046532    58.166851    -32.602551    -33.505444    58.053410    13.317220    -12.575922    34.504948    -9.961945    -55.756859    -30.075432    -18.493538    38.796387    -13.186327    5.523498    -9.716043    41.246952    0.000000    0.000000    0.000000    -8.840067    -1.356364    -24.390553    1.211374    12.513582    -7.698016    14.121909    -17.312365    -4.625704    0.000000    0.000000    0.000000    
1.067339    151.436691    -12.344381    3.429596    26.308279    4.552582    -3.540028    11.481377    8.680532    -3.686217    -3.820313    2.656506    1.897570    2.386375    -9.266725    8.888855    -19.664505    -7.144905    0.414936    6.244238    -9.907385    -37.919552    17.711084    -47.520744    2.052646    -34.698486    -123.578316    -9.883295    -30.634796    -11.537730    -0.132865    8.840301    2.746697    36.852180    7.066673    58.176315    -32.569176    -33.507183    58.066044    13.324748    -12.592518    34.492420    -9.931064    -55.725544    -30.044882    -18.498501    38.797291    -13.173851    5.518922    -9.731308    41.229969    0.000000    0.000000    0.000000    -8.845368    -1.331114    -24.392759    1.209051    12.535343    -7.692385    14.141322    -17.311951    -4.603043    0.000000    0.000000    0.000000    
1.083541    151.430252    -12.336815    3.432330    26.264919    4.533400    -3.529379    11.484386    8.685950    -3.690328    -3.822460    2.658444    1.885300    2.388481    -9.267300    8.880056    -19.638783    -7.148546    0.402659    6.243322    -9.910045    -37.913670    17.715033    -47.516277    2.062222    -34.696526    -123.564468    -9.938803    -30.612295    -11.553438    -0.150870    8.859002    2.744479    36.837029    7.100695    58.200863    -32.558613    -33.529194    58.050529    13.336026    -12.628857    34.478657    -9.901506    -55.687664    -30.000326    -18.488403    38.820221    -13.184726    5.496348    -9.781068    41.226173    0.000000    0.000000    0.000000    -8.853947    -1.299387    -24.383429    1.208306    12.562845    -7.680143    14.140620    -17.330244    -4.592154    0.000000    0.000000    0.000000    
1.092314    151.426376    -12.331854    3.425774    26.229858    4.522189    -3.516689    11.474419    8.689137    -3.699229    -3.822143    2.659722    1.898631    2.376798    -9.257480    8.845770    -19.595770    -7.153995    0.416813    6.242003    -9.925543    -37.928516    17.720037    -47.509640    2.053917    -34.678329    -123.567451    -9.914697    -30.610645    -11.526022    -0.146154    8.859309    2.734487    36.840664    7.121235    58.220921    -32.498936    -33.514854    58.067261    13.332895    -12.641120    34.490425    -9.857781    -55.658932    -29.962523    -18.495428    38.834045    -13.191238    5.509604    -9.800663    41.220181    0.000000    0.000000    0.000000    -8.853298    -1.275359    -24.372412    1.216102    12.584988    -7.662672    14.138417    -17.341366    -4.626201    0.000000    0.000000    0.000000    
1.100596    151.427277    -12.327292    3.427634    26.186077    4.508176    -3.506786    11.481059    8.683738    -3.706662    -3.841786    2.657305    1.876952    2.378859    -9.250171    8.857018    -19.548351    -7.143654    0.409291    6.247077    -9.935406    -37.907356    17.739525    -47.494823    2.061776    -34.696266    -123.559036    -9.851032    -30.625406    -11.493792    -0.159580    8.881858    2.737632    36.827328    7.162455    58.256695    -32.505772    -33.504532    58.025932    13.352829    -12.633162    34.501850    -9.822270    -55.616501    -29.913277    -18.490349    38.836384    -13.201987    5.504285    -9.807198    41.206055    0.000000    0.000000    0.000000    -8.857015    -1.242011    -24.374746    1.218798    12.598946    -7.708628    14.126103    -17.328642    -4.564383    0.000000    0.000000    0.000000    
1.105246    151.428116    -12.327855    3.426528    26.143948    4.494765    -3.503359    11.472965    8.689790    -3.722471    -3.850464    2.658687    1.898851    2.379454    -9.242048    8.834895    -19.500408    -7.148363    0.439934    6.259141    -9.970879    -37.929863    17.712515    -47.479652    2.031942    -34.650661    -123.559341    -9.932962    -30.612705    -11.569337    -0.146621    8.915071    2.734265    36.831173    7.152063    58.288708    -32.468914    -33.467171    58.020412    13.386203    -12.599709    34.531761    -9.788839    -55.581367    -29.862328    -18.478275    38.848331    -13.228534    5.506161    -9.803189    41.194633    0.000000    0.000000    0.000000    -8.860816    -1.213130    -24.372990    1.221496    12.623634    -7.697387    14.138309    -17.329250    -4.554117    0.000000    0.000000    0.000000    
1.109221    151.431656    -12.330427    3.421672    26.104393    4.479187    -3.492194    11.457192    8.691160    -3.731331    -3.847061    2.659494    1.911241    2.341031    -9.225024    8.788781    -19.426434    -7.152491    0.438945    6.258563    -9.975124    -37.911575    17.723940    -47.483677    2.026984    -34.656471    -123.556519    -9.899459    -30.632545    -11.532497    -0.152464    8.930319    2.759695    36.832108    7.161825    58.299950    -32.459507    -33.457272    58.019711    13.394770    -12.590448    34.539970    -9.742277    -55.546520    -29.817759    -18.483107    38.849117    -13.244937    5.506330    -9.806425    41.208771    0.000000    0.000000    0.000000    -8.859701    -1.183457    -24.366362    1.222443    12.633765    -7.695882    14.134904    -17.315887    -4.519623    0.000000    0.000000    0.000000    
